<svg width="55" height="71" viewBox="0 0 55 71" fill="none" xmlns="http://www.w3.org/2000/svg">
<path opacity="0.25" d="M54.8838 49.2279C54.8838 42.3894 51.9826 37.1051 45.2477 33.6859C50.6356 30.8883 53.1224 26.6402 53.1224 20.527C53.1224 9.64756 44.4188 0.218738 28.2551 0.218738C13.542 0.218738 3.59513 8.50781 1.8337 21.9776H17.6866C18.6191 16.3824 21.9347 13.0668 28.1515 13.0668C33.8503 13.0668 37.1659 16.0716 37.1659 20.7342C37.1659 24.2571 35.1972 28.7124 24.525 28.7124H20.8986V40.2135H25.4576C36.1297 40.2135 38.9273 44.0472 38.9273 48.5026C38.9273 54.2013 34.99 57.3097 28.0479 57.3097C21.1058 57.3097 17.4793 53.6833 16.4432 47.8809H0.486723C2.35176 61.6615 12.8167 70.1578 28.1515 70.1578C45.6622 70.1578 54.8838 60.6254 54.8838 49.2279Z" fill="url(#paint0_linear_1_444)"/>
<defs>
<linearGradient id="paint0_linear_1_444" x1="28" y1="-8.43605e-08" x2="28" y2="68.5" gradientUnits="userSpaceOnUse">
<stop stop-opacity="0.8"/>
<stop offset="1" stop-opacity="0.16"/>
</linearGradient>
</defs>
</svg>
