<svg width="570" height="74" viewBox="0 0 570 74" fill="none" xmlns="http://www.w3.org/2000/svg">
<g clip-path="url(#clip0_1_173)">
<rect x="0.75" y="0.75" width="568.5" height="72.5" rx="14.25" fill="white"/>
<rect x="0.75" y="0.75" width="568.5" height="72.5" rx="14.25" stroke="#F0F0F0" stroke-width="1.5"/>
<path d="M31.24 43.208C32.216 43.208 33.016 42.76 33.56 41.96V43H35.272V31.48H33.56V35.432C33.016 34.648 32.216 34.248 31.24 34.248C29.016 34.248 27.624 35.848 27.624 38.744C27.624 41.528 28.984 43.208 31.24 43.208ZM31.464 41.768C30.136 41.768 29.368 40.68 29.368 38.744C29.368 36.776 30.104 35.688 31.464 35.688C32.792 35.688 33.56 36.792 33.56 38.744C33.56 40.712 32.824 41.768 31.464 41.768ZM44.9049 40.216H43.1129C42.8249 41.272 42.0569 41.784 40.9689 41.784C39.5769 41.784 38.7609 40.808 38.6649 39.064H44.8409V38.648C44.8409 35.912 43.3529 34.248 40.8889 34.248C38.4569 34.248 36.9209 35.848 36.9209 38.744C36.9209 41.528 38.4569 43.208 40.9689 43.208C42.9689 43.208 44.4409 42.2 44.9049 40.216ZM40.8889 35.672C42.1049 35.672 42.8569 36.456 43.0649 37.896H38.7129C38.9209 36.456 39.6569 35.672 40.8889 35.672ZM47.9156 36.712C47.9156 36.072 48.4596 35.608 49.4036 35.608C50.4916 35.608 51.1636 36.056 51.3556 37.256H53.0676C52.7956 35.128 51.3876 34.248 49.4836 34.248C47.3236 34.248 46.2836 35.48 46.2836 36.808C46.2836 40.312 51.6596 38.52 51.6596 40.648C51.6596 41.368 51.0516 41.88 49.8996 41.88C48.6996 41.88 47.8996 41.288 47.7236 40.216H46.0116C46.3316 42.248 47.7876 43.208 49.8516 43.208C51.9156 43.208 53.3716 42.152 53.3716 40.536C53.3716 37.064 47.9156 38.888 47.9156 36.712ZM54.9306 33.416H56.6426V31.48H54.9306V33.416ZM54.9306 43H56.6426V34.472H54.9306V43ZM61.7839 43.048C62.8239 43.048 63.6559 42.648 64.2319 41.864V43.304C64.2319 44.776 63.4639 45.368 62.3279 45.368C61.2079 45.368 60.3919 44.824 60.2319 43.8H58.5199C58.8239 45.784 60.2959 46.744 62.3439 46.744C64.3919 46.744 65.9439 45.608 65.9439 43.272V34.472H64.2319V35.368C63.6879 34.632 62.8719 34.248 61.7839 34.248C59.6399 34.248 58.2959 35.816 58.2959 38.664C58.2959 41.384 59.6079 43.048 61.7839 43.048ZM62.1359 41.608C60.7919 41.608 60.0399 40.536 60.0399 38.664C60.0399 36.728 60.7759 35.688 62.1359 35.688C63.4639 35.688 64.2319 36.776 64.2319 38.648C64.2319 40.568 63.4959 41.608 62.1359 41.608ZM68.0244 43H69.7364V37.992C69.7364 36.808 70.5044 35.672 71.7844 35.672C72.9524 35.672 73.4964 36.424 73.4964 37.656V43H75.1924V37.304C75.1924 35.288 74.0884 34.248 72.3124 34.248C71.2084 34.248 70.3124 34.696 69.7364 35.608V34.472H68.0244V43ZM80.543 46.536H82.255V31.48H80.543V46.536Z" fill="#959595"/>
<rect x="496" width="74" height="74" rx="15" fill="#FFBE2E"/>
<path d="M534.359 36.5C534.359 40.036 531.368 42.9024 527.679 42.9024C523.99 42.9024 521 40.036 521 36.5C521 32.964 523.99 30.0976 527.679 30.0976C531.368 30.0976 534.359 32.964 534.359 36.5Z" fill="#202229"/>
<path d="M532.641 44L532.641 29L546 36.5L532.641 44Z" fill="#202229"/>
</g>
<defs>
<clipPath id="clip0_1_173">
<rect width="570" height="74" fill="white"/>
</clipPath>
</defs>
</svg>
